# xmcd
#
# Track frame offsets: 
#        150
#        10872
#        21619
#        31912
#        43976
#        58206
#        70273
#        81099
#        91893
#        102729
#        115728
#        129311
#        140349
#        150537
#        161544
#        172024
#        184979
#        193985
#        203555
#        215188
#        227950
#        239115
#        247396
#        257166
#        266700
#
# Disc length: 3713 seconds
#
# Revision: 2
# Processed by: cddbd v1.5.2PL0 Copyright (c) Steve Scherf et al.
# Submitted via: ExactAudioCopyFreeDBPlugin 1.0
#
DISCID=840e7f19
DTITLE=Various Artist - Northern Soul:  The Early Years [Real Gone Mu
DTITLE=sic]
DYEAR=2018
DGENRE=Soul
TTITLE0=Claudine Clark - Party Lights
TTITLE1=Marie Knight - To Be Loved By You
TTITLE2=Helen Troy - I Think I Love You
TTITLE3=Patti LaBelle and The Bluebells - I Sold My Heart to the Junkman
TTITLE4=Cookie and His Cupcakes - Mathilda
TTITLE5=Ruby Johnson - I Received Your Message
TTITLE6=Young William and The Jamaicans - Limbo Drum, Part 1
TTITLE7=Young William and The Jamaicans - Limbo Drum, Part 2
TTITLE8=June Jackson - Let the Show Begin
TTITLE9=Big Dee Irwin - And Heaven Was Here
TTITLE10=Don Covay - See About Me
TTITLE11=Jo Ann Henderson - Baby Please Don't Go
TTITLE12=The Donays - Bad Boy
TTITLE13=Anna Belle Caesar - Little Annie
TTITLE14=The Eventuals - Charlie Chan
TTITLE15=Don Gardner - I Need Your Lovin'
TTITLE16=Shorty Billups - Bend a Little
TTITLE17=Joey Dee and The Starliters - What Kind of Love is This
TTITLE18=Earl Connelly - Just to Hold My Hand
TTITLE19=Betty James - I'm a Little Mixed Up
TTITLE20=Varetta Dillard - That's Why I Cry
TTITLE21=Johnny Two-Voice - Superman
TTITLE22=Tommy Hunt - The Parade of Broken Hearts
TTITLE23=H.B. Barnum - How Many More Times
TTITLE24=The Wanderers - Somebody Else's Sweetheart
EXTD=
EXTT0=
EXTT1=
EXTT2=
EXTT3=
EXTT4=
EXTT5=
EXTT6=
EXTT7=
EXTT8=
EXTT9=
EXTT10=
EXTT11=
EXTT12=
EXTT13=
EXTT14=
EXTT15=
EXTT16=
EXTT17=
EXTT18=
EXTT19=
EXTT20=
EXTT21=
EXTT22=
EXTT23=
EXTT24=
PLAYORDER=
